<svg width="31" height="31" viewBox="0 0 31 31" fill="none" xmlns="http://www.w3.org/2000/svg">
<mask id="mask0_6959_65" style="mask-type:alpha" maskUnits="userSpaceOnUse" x="4" y="0" width="23" height="23">
<g clip-path="url(#clip0_6959_65)">
<path d="M22.1781 14.2479C21.7072 13.7576 21.1393 13.4955 20.5373 13.4955C19.9403 13.4955 19.3675 13.7527 18.8772 14.243L17.3432 15.7721C17.217 15.7042 17.0908 15.6411 16.9694 15.578C16.7947 15.4906 16.6296 15.4081 16.4889 15.3207C15.052 14.4081 13.7462 13.2188 12.4938 11.6799C11.887 10.913 11.4792 10.2673 11.1831 9.61201C11.5811 9.24794 11.9501 8.86931 12.3093 8.50523C12.4452 8.36931 12.5811 8.22854 12.7171 8.09262C13.7365 7.07321 13.7365 5.75284 12.7171 4.73344L11.3918 3.40821C11.2413 3.25773 11.086 3.10239 10.9404 2.94705C10.6491 2.64608 10.3433 2.33541 10.0278 2.04415C9.5569 1.57814 8.9938 1.33057 8.40158 1.33057C7.80935 1.33057 7.23654 1.57814 6.75111 2.04415C6.74626 2.049 6.74626 2.049 6.7414 2.05386L5.09094 3.71889C4.46959 4.34024 4.11522 5.09751 4.03755 5.97614C3.92105 7.3936 4.33852 8.71397 4.6589 9.57803C5.4453 11.6994 6.62004 13.6654 8.37245 15.7721C10.4986 18.3109 13.0569 20.3158 15.9792 21.7284C17.0956 22.2575 18.5859 22.8837 20.2509 22.9905C20.3529 22.9953 20.4597 23.0002 20.5568 23.0002C21.6781 23.0002 22.6198 22.5973 23.3577 21.7963C23.3626 21.7866 23.3723 21.7818 23.3771 21.7721C23.6295 21.4662 23.9208 21.1895 24.2266 20.8934C24.4354 20.6944 24.6489 20.4857 24.8577 20.2672C25.3383 19.7672 25.5907 19.1847 25.5907 18.5876C25.5907 17.9857 25.3334 17.408 24.8431 16.9226L22.1781 14.2479ZM23.9159 19.3595C23.9111 19.3595 23.9111 19.3643 23.9159 19.3595C23.7266 19.5633 23.5325 19.7478 23.3237 19.9517C23.0082 20.2527 22.6878 20.5682 22.3868 20.9226C21.8966 21.4468 21.3189 21.6944 20.5616 21.6944C20.4888 21.6944 20.4111 21.6944 20.3383 21.6895C18.8966 21.5973 17.5568 21.0342 16.552 20.5536C13.8044 19.2235 11.3918 17.3352 9.387 14.942C7.73168 12.9469 6.6249 11.1023 5.8919 9.12173C5.44045 7.91301 5.2754 6.97127 5.34822 6.08293C5.39676 5.51498 5.6152 5.04411 6.01811 4.6412L7.67343 2.98589C7.91129 2.76259 8.16371 2.64123 8.41128 2.64123C8.71711 2.64123 8.96468 2.82569 9.12001 2.98103C9.12487 2.98589 9.12972 2.99074 9.13458 2.99559C9.43069 3.27229 9.71224 3.55869 10.0084 3.86452C10.1588 4.01985 10.3142 4.17519 10.4695 4.33538L11.7947 5.66061C12.3093 6.17517 12.3093 6.65089 11.7947 7.16544C11.654 7.30622 11.518 7.44699 11.3773 7.58291C10.9695 8.00038 10.5812 8.38873 10.1588 8.76736C10.1491 8.77707 10.1394 8.78193 10.1346 8.79164C9.71709 9.20911 9.79476 9.61687 9.88214 9.89356C9.88699 9.90813 9.89185 9.92269 9.8967 9.93725C10.2414 10.7722 10.7268 11.5586 11.4646 12.4955L11.4695 12.5003C12.8093 14.1508 14.2219 15.4372 15.7801 16.4226C15.9792 16.5488 16.183 16.6508 16.3772 16.7478C16.552 16.8352 16.717 16.9177 16.8578 17.0051C16.8772 17.0148 16.8966 17.0294 16.916 17.0391C17.0811 17.1216 17.2364 17.1605 17.3966 17.1605C17.7995 17.1605 18.0519 16.908 18.1345 16.8255L19.7946 15.1653C19.9597 15.0003 20.2218 14.8013 20.5276 14.8013C20.8286 14.8013 21.0762 14.9906 21.2267 15.1556C21.2315 15.1605 21.2315 15.1605 21.2364 15.1653L23.9111 17.8401C24.4111 18.3352 24.4111 18.8449 23.9159 19.3595Z" fill="black"/>
<path d="M16.43 5.47092C17.7019 5.68451 18.8572 6.28644 19.7795 7.20876C20.7018 8.13108 21.2989 9.2864 21.5174 10.5582C21.5708 10.8786 21.8475 11.1019 22.163 11.1019C22.2018 11.1019 22.2358 11.0971 22.2746 11.0922C22.6339 11.034 22.8717 10.6942 22.8135 10.3349C22.5513 8.79612 21.8232 7.39322 20.7115 6.28159C19.5999 5.16995 18.197 4.4418 16.6582 4.17967C16.299 4.12142 15.964 4.35928 15.9009 4.71365C15.8378 5.06801 16.0708 5.41267 16.43 5.47092Z" fill="black"/>
<path d="M26.9751 10.1458C26.5431 7.61184 25.3489 5.30604 23.514 3.47111C21.6791 1.63618 19.3733 0.442024 16.8393 0.00999088C16.4849 -0.0531151 16.15 0.1896 16.0869 0.543965C16.0286 0.903184 16.2665 1.23813 16.6257 1.30124C18.8878 1.68473 20.9509 2.75753 22.5917 4.39343C24.2324 6.03419 25.3004 8.09727 25.6839 10.3594C25.7373 10.6798 26.0139 10.9031 26.3295 10.9031C26.3683 10.9031 26.4023 10.8982 26.4411 10.8933C26.7955 10.84 27.0382 10.5002 26.9751 10.1458Z" fill="black"/>
</g>
</mask>
<g mask="url(#mask0_6959_65)">
<rect x="-5.06055" y="-81.5454" width="130.333" height="120.576" fill="white"/>
</g>
<defs>
<clipPath id="clip0_6959_65">
<rect width="23" height="23" fill="white" transform="translate(4)"/>
</clipPath>
</defs>
</svg>
